<svg version="1.1" id="Layer_1" xmlns="http://www.w3.org/2000/svg" xmlns:xlink="http://www.w3.org/1999/xlink" x="0px" y="0px"
	 width="100%" viewBox="0 0 512 512" enable-background="new 0 0 512 512" xml:space="preserve">

<path fill="#6A3BE4" opacity="1.000000" stroke="none" 
	d="
M334.330048,451.277039 
	C324.024078,456.986023 313.995026,462.422516 304.048828,468.006561 
	C289.500977,476.174164 272.335358,467.763214 272.156494,448.792725 
	C271.693176,399.649841 271.747040,350.497681 272.137451,301.353516 
	C272.276550,283.840973 281.381836,271.022278 296.702576,262.739288 
	C316.093201,252.255997 335.630035,242.041809 354.976135,231.477798 
	C380.055573,217.783127 404.910828,203.675934 430.052917,190.098831 
	C445.769226,181.611832 463.769440,188.088120 463.906921,209.732117 
	C464.208557,257.211456 463.987915,304.694031 464.005890,352.175262 
	C464.013519,372.260406 454.884399,386.642456 437.222595,395.985229 
	C412.848846,408.878479 388.560486,421.933533 364.259064,434.963135 
	C354.355591,440.272980 344.513855,445.697906 334.330048,451.277039 
z"/>
<path fill="#6A3BE4" opacity="1.000000" stroke="none" 
	d="
M142.962097,431.996338 
	C123.613182,421.702454 104.533775,411.660309 85.697670,401.180847 
	C77.327736,396.524292 68.820358,391.738708 61.514805,385.645538 
	C53.393822,378.872314 50.123459,368.870300 50.084412,358.415466 
	C49.897137,308.269104 49.929188,258.121399 50.074451,207.974762 
	C50.096939,200.210999 52.474415,193.052048 59.952068,189.058914 
	C67.379166,185.092773 75.074944,186.228043 82.124191,189.779419 
	C95.536919,196.536667 108.682129,203.828796 121.888832,210.990295 
	C148.843765,225.606842 175.795181,240.230469 202.683441,254.969040 
	C210.676834,259.350555 218.742294,263.702881 226.260971,268.823029 
	C236.313644,275.668732 240.821198,286.121368 240.883698,297.876770 
	C241.154694,348.855438 241.065155,399.836456 240.962769,450.816376 
	C240.929504,467.375763 226.161026,475.799866 212.425537,468.947449 
	C193.597488,459.554413 175.233932,449.230011 156.676773,439.294525 
	C152.217072,436.906860 147.778763,434.479309 142.962097,431.996338 
z"/>
<path fill="#6A3BE4" opacity="1.000000" stroke="none" 
	d="
M124.313095,171.713776 
	C113.037079,165.674286 101.841225,160.240845 91.179611,153.907974 
	C81.090805,147.915344 78.372612,135.469437 85.583153,127.356224 
	C89.222450,123.261345 94.810387,120.702469 99.844597,118.076721 
	C122.890839,106.056244 146.078568,94.307449 169.166000,82.365410 
	C191.368515,70.881081 213.417053,59.095295 235.713226,47.797165 
	C249.392044,40.865700 263.560638,40.913170 277.254089,47.768513 
	C300.041016,59.176304 322.628113,70.983841 345.279968,82.660675 
	C360.364746,90.436729 375.472900,98.170639 390.463409,106.125381 
	C401.846863,112.166046 412.955414,118.728897 424.386444,124.674545 
	C432.775269,129.037857 434.182343,147.172424 424.236755,152.942978 
	C419.873718,155.474457 415.550934,158.091400 411.075287,160.409698 
	C397.579529,167.400177 383.981476,174.193314 370.489380,181.190720 
	C344.535492,194.651199 318.662720,208.268555 292.677795,221.668594 
	C284.883148,225.688187 277.092682,229.992859 268.829224,232.760406 
	C257.004639,236.720627 245.221832,234.050613 234.414490,228.641800 
	C208.676788,215.760696 183.168915,202.419525 157.595535,189.211288 
	C146.571030,183.517319 135.614197,177.692352 124.313095,171.713776 
z"/>
</svg>